<svg width="66" height="66" viewBox="0 0 66 66" fill="none" xmlns="http://www.w3.org/2000/svg">
<circle cx="33" cy="33" r="33" fill="#FC887B"/>
<path fill-rule="evenodd" clip-rule="evenodd" d="M32.9995 51.6608C33.8494 51.6608 35.7989 51.6608 38.8483 51.6608C38.9298 48.9728 39.3239 47.4948 40.0303 47.2266C47.4061 44.428 52.6424 37.3548 52.6424 29.0715H13.3567C13.3567 37.1756 18.3688 44.1213 25.4928 47.0389C26.2376 47.344 26.7939 48.8846 27.1617 51.6608C30.1373 51.6608 32.0832 51.6608 32.9995 51.6608Z" fill="#0A5C95" stroke="#330B22" stroke-width="3.92857" stroke-linejoin="round"/>
<path d="M23.6133 35.9685C23.9665 37.1352 24.4336 38.0984 25.0146 38.8582C25.5825 39.601 26.2832 40.2898 27.1166 40.9248" fill="#0A5C95"/>
<path d="M23.6133 35.9685C23.9665 37.1352 24.4336 38.0984 25.0146 38.8582C25.5825 39.601 26.2832 40.2898 27.1166 40.9248" stroke="white" stroke-width="3.92857" stroke-linecap="round"/>
<path d="M34.1917 29.0974C37.8804 21.4841 40.0483 16.9962 40.6953 15.6335C41.7259 13.4631 43.8183 12.9408 45.7484 13.7654C47.6784 14.59 48.4594 16.9501 47.6493 18.595C47.149 19.6109 45.4497 23.1044 42.5516 29.0754" fill="#0A5C95"/>
<path d="M34.1917 29.0974C37.8804 21.4841 40.0483 16.9962 40.6953 15.6335C41.7259 13.4631 43.8183 12.9408 45.7484 13.7654C47.6784 14.59 48.4594 16.9501 47.6493 18.595C47.149 19.6109 45.4497 23.1044 42.5516 29.0754" stroke="#330B22" stroke-width="3.92857" stroke-linecap="round"/>
</svg>
