<svg width="154" height="189" viewBox="0 0 154 189" fill="none" xmlns="http://www.w3.org/2000/svg">
<path d="M0.497714 21.6766C0.497714 21.6766 8.23424 31.9446 23.7756 34.4205C39.3196 36.8957 69.4886 28.3479 99.8563 40.5945C130.228 52.8375 136.283 83.0554 136.288 93.4685C136.292 103.879 127.018 107.523 127.018 107.523C127.018 107.523 133.479 124.021 111.679 129.308C32.0265 134.151 0.497714 21.6766 0.497714 21.6766Z" fill="url(#paint0_linear_63_1444)"/>
<path d="M63.0862 68.3795C63.0862 68.3795 102.782 88.291 124.985 111.145C147.191 133.999 152.172 167.365 152.172 167.365C152.172 167.365 153.131 126.516 132.563 105.362C111.995 84.2023 63.0862 68.3795 63.0862 68.3795Z" fill="#330B22"/>
<defs>
<linearGradient id="paint0_linear_63_1444" x1="60.9115" y1="11.5125" x2="81.5814" y2="134.371" gradientUnits="userSpaceOnUse">
<stop stop-color="#7FFF02"/>
<stop offset="1" stop-color="#4F9300"/>
</linearGradient>
</defs>
</svg>
