<svg width="227" height="46" viewBox="0 0 227 46" fill="none" xmlns="http://www.w3.org/2000/svg">
<path d="M5.67408 40.6776C2.84995 38.1336 2.66763 33.823 5.26684 31.0496L15.4139 20.2226L26.0813 29.8319L15.9342 40.6589C13.335 43.4323 8.93854 43.6183 6.11442 41.0743L5.67408 40.6776Z" fill="url(#paint0_linear_63_1427)"/>
<path d="M46.4844 40.859C49.3085 38.315 49.4908 34.0044 46.8916 31.231L36.7446 20.404L26.0772 30.0133L36.2242 40.8403C38.8234 43.6137 43.2199 43.7997 46.044 41.2557L46.4844 40.859Z" fill="url(#paint1_linear_63_1427)"/>
<path d="M10.649 31.7938C9.98719 31.1976 9.94446 30.1875 10.5536 29.5376L17.5529 22.0692L19.9495 24.2281L12.9502 31.6965C12.3411 32.3464 11.3108 32.39 10.649 31.7938V31.7938Z" fill="#91FF11"/>
<path d="M41.6008 31.9745C42.2626 31.3783 42.3053 30.3682 41.6962 29.7182L34.6969 22.2499L32.3002 24.4088L39.2995 31.8771C39.9087 32.5271 40.9389 32.5706 41.6008 31.9745V31.9745Z" fill="#00F0FF"/>
<g clip-path="url(#clip0_63_1427)">
<path d="M16.5955 -0.000399385C16.5955 -0.000399385 16.6817 1.49111 18.0501 2.73377C19.4188 3.97652 22.9546 5.09864 25.1406 8.24252C27.3272 11.3863 25.9337 14.6966 25.2484 15.7029C24.5632 16.7089 23.4093 16.4621 23.4093 16.4621C23.4093 16.4621 22.9594 18.4732 20.4632 17.5764C12.2951 12.9014 16.5955 -0.000399385 16.5955 -0.000399385Z" fill="#7FFF02"/>
<path d="M19.6867 8.55286C19.6867 8.55286 22.287 13.0395 22.9698 16.6811C23.6529 20.3228 21.9463 23.8678 21.9463 23.8678C21.9463 23.8678 24.731 19.9833 24.0974 16.6116C23.4641 13.2394 19.6867 8.55286 19.6867 8.55286Z" fill="white"/>
<path d="M38.0569 16.0178C38.0569 16.0178 37.2423 16.6489 35.9786 16.5275C34.7148 16.4057 32.5332 15.1472 29.9115 15.4765C27.2899 15.8062 26.2003 17.9982 25.987 18.7949C25.774 19.5924 26.4241 20.057 26.4241 20.057C26.4241 20.057 25.5828 21.1903 27.1769 22.0316C33.2979 23.9968 38.0569 16.0178 38.0569 16.0178Z" fill="#7FFF02"/>
<path d="M31.4292 18.5571C31.4292 18.5571 28.7638 19.0725 26.5389 20.3136C24.3141 21.5548 23.1432 24.0767 23.1432 24.0767C23.1432 24.0767 24.022 20.8512 26.0832 19.7021C28.1432 18.5538 31.4292 18.5571 31.4292 18.5571Z" fill="white"/>
</g>
<path d="M63.968 35.1919L70.2581 19.5252H64.9735L61.0218 30.7491H60.7178L56.6725 19.5252H51.3646L57.6546 35.1919H63.968ZM75.1238 35.1919V19.5252H70.7277V35.1919H75.1238ZM80.9239 35.1919V29.8606H82.7244C84.4313 29.8606 84.899 30.1879 85.4602 31.3571L87.3308 35.1919H92.4049L90.4642 31.2635C89.8796 30.071 89.3651 29.2994 87.7517 28.8785V28.6446C90.7447 28.2705 91.9841 26.7974 91.9841 24.3188C91.9841 21.2556 89.8094 19.5252 85.6706 19.5252H76.5278V35.1919H80.9239ZM80.9239 23.477H85.6239C86.9099 23.477 87.3776 23.781 87.3776 25.0203C87.3776 26.3531 86.9099 26.5869 85.6239 26.5869H80.9239V23.477ZM100.682 35.4257C104.353 35.4257 105.686 33.672 106.107 31.8481H106.341V35.1919H110.433V26.6337H101.173V29.8606H105.99C105.78 31.0531 104.844 31.2168 101.594 31.2168C98.414 31.2168 97.5489 30.4685 97.5489 27.3586C97.5489 24.2486 98.4608 23.5004 101.828 23.5004C104.611 23.5004 105.499 24.0616 105.499 25.5113V25.675H110.41V25.5113C110.41 21.6297 107.253 19.2914 101.945 19.2914C96.2394 19.2914 92.8722 22.4715 92.8722 27.3586C92.8722 32.2456 95.7484 35.4257 100.682 35.4257ZM116.135 35.1919V19.5252H111.739V35.1919H116.135ZM121.936 35.1919V29.0655L121.749 26.0725H122.052L124.04 29.1591L128.67 35.1919H133.347V19.5252H128.95V25.5815L129.161 28.9954H128.857L126.565 25.3944L122.216 19.5252H117.54V35.1919H121.936ZM146.207 35.1919C151.374 35.1919 154.648 32.3158 154.648 27.3586C154.648 22.4014 151.374 19.5252 146.207 19.5252H138.28V35.1919H146.207ZM146.207 23.477C148.989 23.477 149.948 23.8277 149.948 27.3586C149.948 30.8894 148.989 31.2402 146.207 31.2402H142.676V23.477H146.207ZM160.207 35.1919V29.8606H162.008C163.715 29.8606 164.182 30.1879 164.743 31.3571L166.614 35.1919H171.688L169.747 31.2635C169.163 30.071 168.648 29.2994 167.035 28.8785V28.6446C170.028 28.2705 171.267 26.7974 171.267 24.3188C171.267 21.2556 169.093 19.5252 164.954 19.5252H155.811V35.1919H160.207ZM160.207 23.477H164.907C166.193 23.477 166.661 23.781 166.661 25.0203C166.661 26.3531 166.193 26.5869 164.907 26.5869H160.207V23.477ZM180.293 35.4257C185.764 35.4257 188.29 32.7834 188.29 28.6213V19.5252H183.894V28.2705C183.894 30.4919 183.262 31.17 180.293 31.17C177.323 31.17 176.692 30.4919 176.692 28.2705V19.5252H172.296V28.6213C172.296 32.7834 174.821 35.4257 180.293 35.4257ZM197.183 35.4257C200.854 35.4257 202.187 33.672 202.608 31.8481H202.842V35.1919H206.934V26.6337H197.674V29.8606H202.491C202.281 31.0531 201.345 31.2168 198.095 31.2168C194.915 31.2168 194.05 30.4685 194.05 27.3586C194.05 24.2486 194.962 23.5004 198.329 23.5004C201.111 23.5004 202 24.0616 202 25.5113V25.675H206.91V25.5113C206.91 21.6297 203.754 19.2914 198.446 19.2914C192.74 19.2914 189.373 22.4715 189.373 27.3586C189.373 32.2456 192.249 35.4257 197.183 35.4257ZM215.84 35.4257C221.124 35.4257 223.182 33.0407 223.182 30.3516C223.182 28.3407 222.153 26.3765 218.318 25.8153L213.408 25.0904C212.566 24.9735 212.286 24.7397 212.286 24.2486C212.286 23.5705 212.777 23.2665 215.021 23.2665C217.968 23.2665 218.459 23.6407 218.459 24.763V25.1138H222.855V24.9735C222.855 21.466 220.47 19.2914 215.489 19.2914C209.83 19.2914 207.89 21.9103 207.89 24.4123C207.89 26.9377 209.363 28.5043 212.286 28.9018L217.196 29.5566C218.482 29.7203 218.786 29.9541 218.786 30.5153C218.786 31.2168 218.505 31.4272 215.84 31.4272C212.893 31.4272 212.519 31.1466 212.519 30.0944V29.6033H208.123V29.7436C208.123 33.7188 211.046 35.4257 215.84 35.4257Z" fill="#330B22"/>
<defs>
<linearGradient id="paint0_linear_63_1427" x1="10.1406" y1="28.8925" x2="18.4762" y2="37.921" gradientUnits="userSpaceOnUse">
<stop stop-color="#4F9300"/>
<stop offset="1" stop-color="#91FF11"/>
</linearGradient>
<linearGradient id="paint1_linear_63_1427" x1="42.0178" y1="29.0738" x2="33.6823" y2="38.1024" gradientUnits="userSpaceOnUse">
<stop stop-color="#0A5C95"/>
<stop offset="1" stop-color="#00F0FF"/>
</linearGradient>
<clipPath id="clip0_63_1427">
<rect width="26.1884" height="19.6847" fill="white" transform="matrix(-0.915069 -0.403296 -0.416803 0.908997 40.5588 10.5618)"/>
</clipPath>
</defs>
</svg>
