<svg width="245" height="53" viewBox="0 0 245 53" fill="none" xmlns="http://www.w3.org/2000/svg">
<path d="M79.4077 26L85.6978 10.3333H80.4132L76.4615 21.5572H76.1575L72.1122 10.3333H66.8043L73.0943 26H79.4077ZM91.0311 26V10.3333H86.6351V26H91.0311ZM97.2989 26V20.6687H99.0994C100.806 20.6687 101.274 20.996 101.835 22.1652L103.706 26H108.78L106.839 22.0716C106.255 20.8791 105.74 20.1075 104.127 19.6866V19.4527C107.12 19.0786 108.359 17.6055 108.359 15.1269C108.359 12.0637 106.184 10.3333 102.046 10.3333H92.9029V26H97.2989ZM97.2989 14.2851H101.999C103.285 14.2851 103.753 14.5891 103.753 15.8284C103.753 17.1612 103.285 17.395 101.999 17.395H97.2989V14.2851ZM117.525 26.2338C121.196 26.2338 122.529 24.4801 122.95 22.6562H123.184V26H127.276V17.4418H118.016V20.6687H122.833C122.622 21.8612 121.687 22.0249 118.437 22.0249C115.257 22.0249 114.392 21.2766 114.392 18.1667C114.392 15.0567 115.303 14.3085 118.671 14.3085C121.453 14.3085 122.342 14.8697 122.342 16.3194V16.4831H127.252V16.3194C127.252 12.4378 124.096 10.0995 118.788 10.0995C113.082 10.0995 109.715 13.2796 109.715 18.1667C109.715 23.0537 112.591 26.2338 117.525 26.2338ZM133.446 26V10.3333H129.05V26H133.446ZM139.714 26V19.8736L139.527 16.8806H139.83L141.818 19.9672L146.448 26H151.125V10.3333H146.728V16.3896L146.939 19.8035H146.635L144.343 16.2025L139.994 10.3333H135.318V26H139.714ZM161.187 26C166.355 26 169.628 23.1239 169.628 18.1667C169.628 13.2095 166.355 10.3333 161.187 10.3333H153.26V26H161.187ZM161.187 14.2851C163.969 14.2851 164.928 14.6358 164.928 18.1667C164.928 21.6975 163.969 22.0483 161.187 22.0483H157.656V14.2851H161.187ZM175.655 26V20.6687H177.455C179.162 20.6687 179.63 20.996 180.191 22.1652L182.062 26H187.136L185.195 22.0716C184.611 20.8791 184.096 20.1075 182.483 19.6866V19.4527C185.476 19.0786 186.715 17.6055 186.715 15.1269C186.715 12.0637 184.541 10.3333 180.402 10.3333H171.259V26H175.655ZM175.655 14.2851H180.355C181.641 14.2851 182.109 14.5891 182.109 15.8284C182.109 17.1612 181.641 17.395 180.355 17.395H175.655V14.2851ZM196.208 26.2338C201.68 26.2338 204.205 23.5915 204.205 19.4294V10.3333H199.809V19.0786C199.809 21.3 199.178 21.9781 196.208 21.9781C193.239 21.9781 192.607 21.3 192.607 19.0786V10.3333H188.211V19.4294C188.211 23.5915 190.737 26.2338 196.208 26.2338ZM213.566 26.2338C217.237 26.2338 218.57 24.4801 218.991 22.6562H219.225V26H223.317V17.4418H214.057V20.6687H218.874C218.664 21.8612 217.728 22.0249 214.478 22.0249C211.298 22.0249 210.433 21.2766 210.433 18.1667C210.433 15.0567 211.345 14.3085 214.712 14.3085C217.495 14.3085 218.383 14.8697 218.383 16.3194V16.4831H223.294V16.3194C223.294 12.4378 220.137 10.0995 214.829 10.0995C209.123 10.0995 205.756 13.2796 205.756 18.1667C205.756 23.0537 208.632 26.2338 213.566 26.2338ZM232.691 26.2338C237.975 26.2338 240.033 23.8488 240.033 21.1597C240.033 19.1488 239.004 17.1846 235.169 16.6234L230.259 15.8985C229.417 15.7816 229.136 15.5478 229.136 15.0567C229.136 14.3786 229.627 14.0746 231.872 14.0746C234.819 14.0746 235.31 14.4488 235.31 15.5712V15.9219H239.706V15.7816C239.706 12.2741 237.321 10.0995 232.34 10.0995C226.681 10.0995 224.74 12.7184 224.74 15.2204C224.74 17.7458 226.214 19.3124 229.136 19.71L234.047 20.3647C235.333 20.5284 235.637 20.7622 235.637 21.3234C235.637 22.0249 235.356 22.2353 232.691 22.2353C229.744 22.2353 229.37 21.9547 229.37 20.9025V20.4114H224.974V20.5517C224.974 24.5269 227.897 26.2338 232.691 26.2338Z" fill="white"/>
<path d="M5.81332 46.2443C2.60271 43.3521 2.39544 38.4516 5.35036 35.2987L16.886 22.99L29.0133 33.9143L17.4776 46.223C14.5227 49.376 9.52454 49.5874 6.31393 46.6952L5.81332 46.2443Z" fill="url(#paint0_linear_293_2)"/>
<path d="M52.2086 46.4506C55.4193 43.5584 55.6265 38.6579 52.6716 35.505L41.1359 23.1963L29.0087 34.1206L40.5443 46.4293C43.4993 49.5823 48.4974 49.7937 51.708 46.9015L52.2086 46.4506Z" fill="url(#paint1_linear_293_2)"/>
<path d="M11.469 36.1448C10.7166 35.467 10.668 34.3186 11.3605 33.5798L19.3177 25.0893L22.0423 27.5437L14.0851 36.0341C13.3927 36.773 12.2214 36.8225 11.469 36.1448V36.1448Z" fill="#91FF11"/>
<path d="M46.6567 36.3502C47.4091 35.6725 47.4577 34.5241 46.7652 33.7852L38.808 25.2948L36.0834 27.7492L44.0406 36.2396C44.7331 36.9784 45.9043 37.028 46.6567 36.3502V36.3502Z" fill="#00F0FF"/>
<g clip-path="url(#clip0_293_2)">
<path d="M18.2294 -0.000698114C18.2294 -0.000698114 18.3274 1.69493 19.883 3.10764C21.4391 4.52047 25.4588 5.79616 27.9439 9.37028C30.4297 12.9443 28.8456 16.7076 28.0665 17.8517C27.2875 18.9953 25.9757 18.7148 25.9757 18.7148C25.9757 18.7148 25.4642 21.0011 22.6264 19.9815C13.3404 14.6667 18.2294 -0.000698114 18.2294 -0.000698114Z" fill="#7FFF02"/>
<path d="M21.7436 9.72327C21.7436 9.72327 24.6998 14.8239 25.4761 18.9639C26.2526 23.1039 24.3125 27.1341 24.3125 27.1341C24.3125 27.1341 27.4783 22.718 26.758 18.8849C26.038 15.0511 21.7436 9.72327 21.7436 9.72327Z" fill="white"/>
<path d="M42.6277 18.2097C42.6277 18.2097 41.7016 18.9272 40.265 18.7891C38.8282 18.6507 36.3481 17.22 33.3676 17.5944C30.3873 17.9692 29.1485 20.4611 28.906 21.3668C28.6639 22.2735 29.4029 22.8017 29.4029 22.8017C29.4029 22.8017 28.4465 24.09 30.2587 25.0465C37.2174 27.2806 42.6277 18.2097 42.6277 18.2097Z" fill="#7FFF02"/>
<path d="M35.093 21.0967C35.093 21.0967 32.0628 21.6826 29.5334 23.0935C27.0043 24.5046 25.6731 27.3716 25.6731 27.3716C25.6731 27.3716 26.6721 23.7047 29.0154 22.3984C31.3573 21.0929 35.093 21.0967 35.093 21.0967Z" fill="white"/>
</g>
<path d="M75.6924 41.6812H79.6572C79.6572 41.7495 79.6595 41.8452 79.6641 41.9683C79.6777 42.2918 79.6846 42.5106 79.6846 42.6245C79.6846 44.0327 79.2812 45.1265 78.4746 45.9058C77.668 46.6851 76.5309 47.0747 75.0635 47.0747C74.2432 47.0747 73.5117 46.9539 72.8691 46.7124C72.2266 46.4709 71.6637 46.1063 71.1807 45.6187C70.7067 45.1356 70.3421 44.5682 70.0869 43.9165C69.8363 43.2648 69.7109 42.5675 69.7109 41.8247C69.7109 41.0682 69.8385 40.3709 70.0938 39.7329C70.3535 39.0949 70.7363 38.5321 71.2422 38.0444C71.7298 37.5659 72.3018 37.2013 72.958 36.9507C73.6143 36.7 74.3161 36.5747 75.0635 36.5747C75.8519 36.5747 76.556 36.7183 77.1758 37.0054C77.8001 37.2925 78.3561 37.7323 78.8438 38.3247L77.6543 39.2202C77.3171 38.8283 76.9365 38.5366 76.5127 38.3452C76.0889 38.1538 75.6149 38.0581 75.0908 38.0581C74.0062 38.0581 73.1198 38.4067 72.4316 39.104C71.748 39.7967 71.4062 40.6991 71.4062 41.811C71.4062 42.9412 71.748 43.8595 72.4316 44.5659C73.1198 45.2677 74.0107 45.6187 75.1045 45.6187C76.0342 45.6187 76.7656 45.4022 77.2988 44.9692C77.832 44.5363 78.0986 43.9461 78.0986 43.1987V43.0552H75.6924V41.6812ZM81.4704 46.8081V36.8003H83.0973V45.3521H86.7341V46.8081H81.4704ZM96.1898 41.8247C96.1898 41.3188 96.0964 40.8381 95.9095 40.3823C95.7272 39.9266 95.4629 39.521 95.1166 39.1655C94.7793 38.8146 94.3874 38.5457 93.9408 38.3589C93.4987 38.1675 93.0316 38.0718 92.5394 38.0718C92.0472 38.0718 91.5778 38.1652 91.1312 38.3521C90.6892 38.5389 90.2949 38.8101 89.9486 39.1655C89.6022 39.5164 89.3379 39.9198 89.1556 40.3755C88.9733 40.8312 88.8822 41.3143 88.8822 41.8247C88.8822 42.3306 88.9733 42.8091 89.1556 43.2603C89.3379 43.7114 89.6022 44.1147 89.9486 44.4702C90.2949 44.8257 90.6892 45.0968 91.1312 45.2837C91.5733 45.4705 92.0427 45.564 92.5394 45.564C93.027 45.564 93.4896 45.4705 93.9271 45.2837C94.3692 45.0968 94.7657 44.8257 95.1166 44.4702C95.4629 44.1147 95.7272 43.7114 95.9095 43.2603C96.0964 42.8045 96.1898 42.326 96.1898 41.8247ZM97.8851 41.8247C97.8851 42.5356 97.7507 43.2078 97.4818 43.8413C97.2175 44.4748 96.8301 45.0399 96.3197 45.5366C95.8047 46.0334 95.2237 46.4139 94.5765 46.6782C93.9294 46.9425 93.2504 47.0747 92.5394 47.0747C91.8194 47.0747 91.1312 46.9425 90.475 46.6782C89.8233 46.4093 89.2468 46.0288 88.7455 45.5366C88.2351 45.0399 87.8477 44.4771 87.5834 43.8481C87.319 43.2192 87.1869 42.5448 87.1869 41.8247C87.1869 41.1092 87.319 40.4347 87.5834 39.8013C87.8477 39.1678 88.2351 38.6004 88.7455 38.0991C89.2559 37.6024 89.8347 37.2241 90.4818 36.9644C91.1289 36.7046 91.8148 36.5747 92.5394 36.5747C93.2595 36.5747 93.9408 36.7046 94.5834 36.9644C95.2305 37.2241 95.8093 37.6024 96.3197 38.0991C96.8301 38.605 97.2175 39.1769 97.4818 39.8149C97.7507 40.4484 97.8851 41.1183 97.8851 41.8247ZM101.414 41.0249H102.036C102.811 41.0249 103.358 40.9201 103.677 40.7104C104 40.4963 104.162 40.1385 104.162 39.6372C104.162 39.0903 104.014 38.7075 103.718 38.4888C103.422 38.2655 102.861 38.1538 102.036 38.1538H101.414V41.0249ZM101.414 45.4478H101.975C102.544 45.4478 102.97 45.425 103.253 45.3794C103.536 45.3338 103.759 45.2541 103.923 45.1401C104.123 45.008 104.278 44.8302 104.388 44.6069C104.497 44.3836 104.552 44.1375 104.552 43.8687C104.552 43.5496 104.486 43.2716 104.354 43.0347C104.221 42.7977 104.032 42.6131 103.786 42.481C103.631 42.4035 103.453 42.3465 103.253 42.3101C103.057 42.2736 102.795 42.2554 102.467 42.2554H101.975H101.414V45.4478ZM99.8213 46.8081V36.8003H102.344C103.064 36.8003 103.595 36.839 103.937 36.9165C104.283 36.994 104.577 37.1216 104.818 37.2993C105.128 37.5272 105.368 37.8257 105.536 38.1948C105.709 38.564 105.796 38.9718 105.796 39.4185C105.796 39.9517 105.673 40.3983 105.427 40.7583C105.181 41.1138 104.823 41.3621 104.354 41.5034C104.937 41.5946 105.395 41.8612 105.728 42.3032C106.065 42.7407 106.233 43.2944 106.233 43.9644C106.233 44.37 106.163 44.755 106.022 45.1196C105.88 45.4842 105.68 45.7941 105.42 46.0493C105.147 46.3273 104.807 46.5233 104.401 46.6372C103.996 46.7511 103.314 46.8081 102.357 46.8081H99.8213ZM110.07 42.8774H112.859L111.834 40.5942C111.774 40.4484 111.713 40.2821 111.649 40.0952C111.585 39.9038 111.522 39.6919 111.458 39.4595C111.403 39.6782 111.344 39.8833 111.28 40.0747C111.221 40.2616 111.159 40.4347 111.095 40.5942L110.07 42.8774ZM114.568 46.8081L113.433 44.231H109.468L108.306 46.8081H106.597L111.444 36.4038L116.284 46.8081H114.568ZM117.297 46.8081V36.8003H118.924V45.3521H122.561V46.8081H117.297ZM128.252 46.8081V36.8003H129.879V40.4917H134.801V36.8003H136.428V46.8081H134.801V41.9478H129.879V46.8081H128.252ZM138.794 46.8081V36.8003H144.379V38.1812H140.421V40.6899H144.379V42.1187H140.421V45.3521H144.379V46.8081H138.794ZM148.428 42.8774H151.217L150.192 40.5942C150.132 40.4484 150.071 40.2821 150.007 40.0952C149.943 39.9038 149.879 39.6919 149.816 39.4595C149.761 39.6782 149.702 39.8833 149.638 40.0747C149.579 40.2616 149.517 40.4347 149.453 40.5942L148.428 42.8774ZM152.926 46.8081L151.791 44.231H147.826L146.664 46.8081H144.955L149.802 36.4038L154.642 46.8081H152.926ZM155.655 46.8081V36.8003H157.282V45.3521H160.919V46.8081H155.655ZM164.783 38.1812V46.8081H163.156V38.1812H160.497V36.8003H167.428V38.1812H164.783ZM168.742 46.8081V36.8003H170.369V40.4917H175.291V36.8003H176.918V46.8081H175.291V41.9478H170.369V46.8081H168.742ZM187.317 39.2339C186.857 38.842 186.369 38.548 185.854 38.3521C185.344 38.1561 184.806 38.0581 184.241 38.0581C183.147 38.0581 182.256 38.409 181.568 39.1108C180.885 39.8127 180.543 40.7218 180.543 41.8384C180.543 42.9185 180.875 43.8094 181.541 44.5112C182.211 45.2131 183.054 45.564 184.07 45.564C184.663 45.564 185.225 45.4591 185.759 45.2495C186.296 45.0399 186.811 44.7231 187.304 44.2993V46.1382C186.866 46.4526 186.39 46.6873 185.875 46.8423C185.36 46.9972 184.802 47.0747 184.2 47.0747C183.434 47.0747 182.726 46.9494 182.074 46.6987C181.427 46.4481 180.857 46.0789 180.365 45.5913C179.877 45.1128 179.501 44.55 179.237 43.9028C178.977 43.2511 178.848 42.5584 178.848 41.8247C178.848 41.091 178.977 40.4028 179.237 39.7603C179.501 39.1131 179.882 38.5457 180.379 38.0581C180.875 37.5659 181.445 37.1945 182.088 36.9438C182.73 36.6886 183.425 36.561 184.173 36.561C184.761 36.561 185.321 36.6476 185.854 36.8208C186.388 36.9894 186.905 37.2469 187.406 37.5933L187.317 39.2339ZM191.516 42.8774H194.305L193.28 40.5942C193.221 40.4484 193.159 40.2821 193.095 40.0952C193.031 39.9038 192.968 39.6919 192.904 39.4595C192.849 39.6782 192.79 39.8833 192.726 40.0747C192.667 40.2616 192.605 40.4347 192.542 40.5942L191.516 42.8774ZM196.014 46.8081L194.879 44.231H190.915L189.752 46.8081H188.043L192.89 36.4038L197.73 46.8081H196.014ZM200.37 41.0659H200.664C201.526 41.0659 202.098 40.9657 202.38 40.7651C202.663 40.5646 202.804 40.2091 202.804 39.6987C202.804 39.1473 202.651 38.7599 202.346 38.5366C202.045 38.3088 201.485 38.1948 200.664 38.1948H200.37V41.0659ZM200.268 42.3306V46.8081H198.743V36.8003H201.013C201.678 36.8003 202.193 36.8436 202.558 36.9302C202.927 37.0168 203.241 37.1603 203.501 37.3608C203.811 37.6024 204.05 37.9146 204.219 38.2974C204.388 38.6802 204.472 39.0994 204.472 39.5552C204.472 40.3573 204.278 40.9862 203.891 41.4419C203.503 41.8931 202.932 42.1642 202.175 42.2554L205.62 46.8081H203.781L200.452 42.3306H200.268ZM206.661 46.8081V36.8003H212.246V38.1812H208.288V40.6899H212.246V42.1187H208.288V45.3521H212.246V46.8081H206.661ZM218.477 46.8081V36.8003H220.104V45.3521H223.74V46.8081H218.477ZM227.604 38.1812V46.8081H225.977V38.1812H223.318V36.8003H230.25V38.1812H227.604ZM233.191 45.3384H234.558C235.31 45.3384 235.873 45.2882 236.247 45.188C236.625 45.0877 236.953 44.9191 237.231 44.6821C237.609 44.3586 237.892 43.9575 238.079 43.479C238.27 42.9959 238.366 42.4354 238.366 41.7974C238.366 41.1593 238.27 40.6011 238.079 40.1226C237.892 39.6395 237.609 39.2362 237.231 38.9126C236.948 38.6756 236.609 38.507 236.212 38.4067C235.821 38.3065 235.205 38.2563 234.367 38.2563H233.779H233.191V45.3384ZM231.564 46.8081V36.8003H233.758C235.185 36.8003 236.187 36.8732 236.766 37.019C237.35 37.1603 237.86 37.3996 238.297 37.7368C238.876 38.1789 239.314 38.7463 239.61 39.439C239.911 40.1317 240.061 40.9224 240.061 41.811C240.061 42.6997 239.911 43.4881 239.61 44.1763C239.314 44.8599 238.876 45.425 238.297 45.8716C237.86 46.2088 237.361 46.4504 236.8 46.5962C236.244 46.7375 235.376 46.8081 234.196 46.8081H233.758H231.564Z" fill="white"/>
<defs>
<linearGradient id="paint0_linear_293_2" x1="10.8912" y1="32.8463" x2="20.3674" y2="43.1104" gradientUnits="userSpaceOnUse">
<stop stop-color="#4F9300"/>
<stop offset="1" stop-color="#91FF11"/>
</linearGradient>
<linearGradient id="paint1_linear_293_2" x1="47.1308" y1="33.0526" x2="37.6546" y2="43.3167" gradientUnits="userSpaceOnUse">
<stop stop-color="#0A5C95"/>
<stop offset="1" stop-color="#00F0FF"/>
</linearGradient>
<clipPath id="clip0_293_2">
<rect width="29.7724" height="22.3785" fill="white" transform="matrix(-0.915069 -0.403296 -0.416803 0.908997 45.4722 12.0071)"/>
</clipPath>
</defs>
</svg>
